<mxfile host="65bd71144e">
    <diagram id="I3fcsa-FJF0cUGwwKhgH" name="ページ1">
        <mxGraphModel dx="755" dy="440" grid="1" gridSize="10" guides="1" tooltips="1" connect="1" arrows="1" fold="1" page="1" pageScale="1" pageWidth="827" pageHeight="1169" math="0" shadow="0">
            <root>
                <mxCell id="0"/>
                <mxCell id="1" parent="0"/>
                <mxCell id="2" value="" style="rounded=0;whiteSpace=wrap;html=1;" parent="1" vertex="1">
                    <mxGeometry x="40" y="40" width="350" height="450" as="geometry"/>
                </mxCell>
                <mxCell id="3" value="画面設計" style="text;html=1;strokeColor=none;fillColor=none;align=center;verticalAlign=middle;whiteSpace=wrap;rounded=0;" parent="1" vertex="1">
                    <mxGeometry x="185" width="60" height="30" as="geometry"/>
                </mxCell>
                <mxCell id="4" value="" style="rounded=0;whiteSpace=wrap;html=1;" parent="1" vertex="1">
                    <mxGeometry x="50" y="130" width="330" height="160" as="geometry"/>
                </mxCell>
                <mxCell id="5" value="" style="rounded=0;whiteSpace=wrap;html=1;" parent="1" vertex="1">
                    <mxGeometry x="50" y="50" width="330" height="60" as="geometry"/>
                </mxCell>
                <mxCell id="6" value="" style="rounded=0;whiteSpace=wrap;html=1;" parent="1" vertex="1">
                    <mxGeometry x="50" y="310" width="330" height="160" as="geometry"/>
                </mxCell>
                <mxCell id="7" value="画面概要&lt;br&gt;３つのエリアに分かれており、上から順にtodo登録エリア、todo一覧エリア、完了済todoエリアとする。" style="text;html=1;strokeColor=none;fillColor=none;align=left;verticalAlign=middle;whiteSpace=wrap;rounded=0;" parent="1" vertex="1">
                    <mxGeometry x="413" y="30" width="290" height="100" as="geometry"/>
                </mxCell>
                <mxCell id="8" value="" style="rounded=0;whiteSpace=wrap;html=1;" parent="1" vertex="1">
                    <mxGeometry x="65" y="60" width="165" height="40" as="geometry"/>
                </mxCell>
                <mxCell id="9" value="" style="rounded=1;whiteSpace=wrap;html=1;" parent="1" vertex="1">
                    <mxGeometry x="270" y="65" width="75" height="30" as="geometry"/>
                </mxCell>
                <mxCell id="10" value="TextBox" style="text;html=1;strokeColor=none;fillColor=none;align=center;verticalAlign=middle;whiteSpace=wrap;rounded=0;" parent="1" vertex="1">
                    <mxGeometry x="117.5" y="65" width="60" height="30" as="geometry"/>
                </mxCell>
                <mxCell id="11" value="追加ボタン" style="text;html=1;strokeColor=none;fillColor=none;align=center;verticalAlign=middle;whiteSpace=wrap;rounded=0;" parent="1" vertex="1">
                    <mxGeometry x="271.25" y="65" width="72.5" height="30" as="geometry"/>
                </mxCell>
                <mxCell id="12" value="完了済Todo" style="text;html=1;strokeColor=none;fillColor=none;align=center;verticalAlign=middle;whiteSpace=wrap;rounded=0;" parent="1" vertex="1">
                    <mxGeometry x="167.5" y="310" width="95" height="30" as="geometry"/>
                </mxCell>
                <mxCell id="13" value="Todo一覧" style="text;html=1;strokeColor=none;fillColor=none;align=center;verticalAlign=middle;whiteSpace=wrap;rounded=0;" parent="1" vertex="1">
                    <mxGeometry x="185" y="130" width="60" height="30" as="geometry"/>
                </mxCell>
                <mxCell id="14" value="削除" style="text;html=1;strokeColor=none;fillColor=none;align=center;verticalAlign=middle;whiteSpace=wrap;rounded=0;" parent="1" vertex="1">
                    <mxGeometry x="296.25" y="160" width="72.5" height="30" as="geometry"/>
                </mxCell>
                <mxCell id="15" value="追加ボタン" style="text;html=1;strokeColor=none;fillColor=none;align=center;verticalAlign=middle;whiteSpace=wrap;rounded=0;" parent="1" vertex="1">
                    <mxGeometry x="88.75" y="160" width="72.5" height="30" as="geometry"/>
                </mxCell>
                <mxCell id="17" value="項目" style="rounded=0;whiteSpace=wrap;html=1;" parent="1" vertex="1">
                    <mxGeometry x="70" y="160" width="110" height="30" as="geometry"/>
                </mxCell>
                <mxCell id="18" value="" style="rounded=1;whiteSpace=wrap;html=1;" parent="1" vertex="1">
                    <mxGeometry x="225" y="160" width="65" height="30" as="geometry"/>
                </mxCell>
                <mxCell id="19" value="削除" style="rounded=1;whiteSpace=wrap;html=1;" parent="1" vertex="1">
                    <mxGeometry x="300" y="160" width="65" height="30" as="geometry"/>
                </mxCell>
                <mxCell id="20" value="完了" style="text;html=1;strokeColor=none;fillColor=none;align=center;verticalAlign=middle;whiteSpace=wrap;rounded=0;" parent="1" vertex="1">
                    <mxGeometry x="227.5" y="160" width="60" height="30" as="geometry"/>
                </mxCell>
                <mxCell id="21" value="" style="rounded=0;whiteSpace=wrap;html=1;" parent="1" vertex="1">
                    <mxGeometry x="65" y="350" width="110" height="30" as="geometry"/>
                </mxCell>
                <mxCell id="22" value="項目" style="text;html=1;strokeColor=none;fillColor=none;align=center;verticalAlign=middle;whiteSpace=wrap;rounded=0;" parent="1" vertex="1">
                    <mxGeometry x="88.75" y="350" width="60" height="30" as="geometry"/>
                </mxCell>
                <mxCell id="23" value="" style="rounded=1;whiteSpace=wrap;html=1;" parent="1" vertex="1">
                    <mxGeometry x="227.5" y="350" width="62.5" height="30" as="geometry"/>
                </mxCell>
                <mxCell id="24" value="戻す" style="text;html=1;strokeColor=none;fillColor=none;align=center;verticalAlign=middle;whiteSpace=wrap;rounded=0;" parent="1" vertex="1">
                    <mxGeometry x="228.75" y="350" width="60" height="30" as="geometry"/>
                </mxCell>
                <mxCell id="25" value="各エリアには、項目と各種ボタンが設置されている。" style="text;html=1;strokeColor=none;fillColor=none;align=left;verticalAlign=middle;whiteSpace=wrap;rounded=0;" parent="1" vertex="1">
                    <mxGeometry x="413" y="120" width="297" height="30" as="geometry"/>
                </mxCell>
                <mxCell id="26" value="&lt;b&gt;作業の流れ&lt;/b&gt;&lt;br&gt;&lt;br&gt;①index.htmlを作成していく。&lt;br&gt;②style.cssにて、スタイルを当てていく&lt;br&gt;③index.jsにて機能面を実装していく" style="text;html=1;strokeColor=none;fillColor=none;align=left;verticalAlign=middle;whiteSpace=wrap;rounded=0;" parent="1" vertex="1">
                    <mxGeometry x="413" y="160" width="287" height="120" as="geometry"/>
                </mxCell>
                <mxCell id="27" value="&lt;b&gt;ボタンを横並びにするため、divタグで囲う。&lt;/b&gt;" style="text;html=1;strokeColor=none;fillColor=none;align=left;verticalAlign=middle;whiteSpace=wrap;rounded=0;" vertex="1" parent="1">
                    <mxGeometry x="130" y="150" width="287" height="120" as="geometry"/>
                </mxCell>
                <mxCell id="28" value="&lt;h1&gt;&lt;font style=&quot;font-size: 12px&quot;&gt;機能面の実装&lt;/font&gt;&lt;/h1&gt;&lt;div&gt;TextBoxにテキストを入力し、追加ボタンを押したらTodo一覧のエリアに追加される。&lt;/div&gt;&lt;div&gt;JavaScriptでDOMを作成する場合は、createElementを使う。&lt;/div&gt;&lt;div&gt;&lt;br&gt;&lt;/div&gt;" style="text;html=1;strokeColor=none;fillColor=none;spacing=5;spacingTop=-20;whiteSpace=wrap;overflow=hidden;rounded=0;" vertex="1" parent="1">
                    <mxGeometry x="414" y="280" width="476" height="120" as="geometry"/>
                </mxCell>
            </root>
        </mxGraphModel>
    </diagram>
</mxfile>